# xmcd CD database file
#
# Track frame offsets:
#	150
#	20927
#	45807
#	63026
#	85502
#	109061
#	133938
#	157180
#	184527
#	209081
#	231759
#
# Disc length: 3334 seconds
#
# Revision: 0
# Processed by: cddbd v1.5.2PL0 Copyright (c) Steve Scherf et al.
# Submitted via: CDex 1.51
#
DISCID=900d040b
DTITLE=Cyrus Chestnut - Cyrus Plays Elvis
DYEAR=2007
DGENRE=Jazz
TTITLE0=You Ain't Nothing But A Hound Dog
TTITLE1=Don't Be Cruel
TTITLE2=Can't Help Falling In Love With You
TTITLE3=Love Me Tender
TTITLE4=It's Now Or Never
TTITLE5=Don't
TTITLE6=Graceland
TTITLE7=Suspicious Mind
TTITLE8=Heartbreak Hotel
TTITLE9=In the Ghetto
TTITLE10=How Great Thou Art
EXTD=YEAR: 2007
EXTT0=
EXTT1=
EXTT2=
EXTT3=
EXTT4=
EXTT5=
EXTT6=
EXTT7=
EXTT8=
EXTT9=
EXTT10=
PLAYORDER=
